<svg xmlns="http://www.w3.org/2000/svg" width="375" viewBox="0 0 375 375" height="375" version="1.0"><defs><clipPath id="a"><path d="M 54.546875 73 L 320.796875 73 L 320.796875 375 L 54.546875 375 Z M 54.546875 73"/></clipPath></defs><g clip-path="url(#a)"><path fill="#264DE4" d="M 187.554688 374.988281 L 78.921875 344.871094 L 54.714844 73.699219 L 320.71875 73.695312 L 296.496094 344.828125 L 187.5625 374.984375 Z M 187.554688 374.988281"/></g><path fill="#2965F1" d="M 275.75 327.566406 L 296.460938 95.871094 L 187.722656 95.867188 L 187.722656 351.929688 L 275.75 327.5625 Z M 275.75 327.566406"/><path fill="#EBEBEB" d="M 110.214844 196.445312 L 113.199219 229.695312 L 187.722656 229.695312 L 187.722656 196.445312 Z M 110.214844 196.445312"/><path fill="#EBEBEB" d="M 104.214844 129.121094 L 107.242188 162.382812 L 187.722656 162.382812 L 187.722656 129.121094 Z M 104.214844 129.121094"/><path fill="#EBEBEB" d="M 187.722656 282.816406 L 187.578125 282.859375 L 150.488281 272.851562 L 148.117188 246.328125 L 114.6875 246.328125 L 119.351562 298.550781 L 187.566406 317.464844 L 187.722656 317.421875 Z M 187.722656 282.816406"/><path fill="#FFF" d="M 117.320312 0 L 157.65625 0 L 157.65625 16.84375 L 134.1875 16.84375 L 134.1875 33.691406 L 157.65625 33.691406 L 157.65625 50.535156 L 117.320312 50.535156 Z M 117.320312 0"/><path fill="#FFF" d="M 165.71875 0 L 206.054688 0 L 206.054688 14.648438 L 182.59375 14.648438 L 182.59375 17.578125 L 206.054688 17.578125 L 206.054688 51.269531 L 165.71875 51.269531 L 165.71875 35.886719 L 189.191406 35.886719 L 189.191406 32.957031 L 165.71875 32.957031 Z M 165.71875 0"/><path fill="#FFF" d="M 214.125 0 L 254.457031 0 L 254.457031 14.648438 L 230.988281 14.648438 L 230.988281 17.578125 L 254.457031 17.578125 L 254.457031 51.269531 L 214.125 51.269531 L 214.125 35.886719 L 237.585938 35.886719 L 237.585938 32.957031 L 214.125 32.957031 Z M 214.125 0"/><path fill="#FFF" d="M 265.023438 196.445312 L 271.027344 129.121094 L 187.609375 129.121094 L 187.609375 162.382812 L 234.53125 162.382812 L 231.507812 196.445312 L 187.609375 196.445312 L 187.609375 229.695312 L 228.621094 229.695312 L 224.75 272.832031 L 187.609375 282.847656 L 187.609375 317.441406 L 255.878906 298.550781 L 256.378906 292.929688 L 264.207031 205.371094 Z M 265.023438 196.445312"/></svg>