<svg xmlns="http://www.w3.org/2000/svg" width="375" viewBox="0 0 375 375" height="375" version="1.0"><defs><clipPath id="a"><path d="M 54.546875 73 L 320.796875 73 L 320.796875 375 L 54.546875 375 Z M 54.546875 73"/></clipPath></defs><g clip-path="url(#a)"><path fill="#E44D26" d="M 320.726562 73.695312 L 296.492188 344.828125 L 187.554688 374.984375 L 78.921875 344.867188 L 54.714844 73.695312 L 320.71875 73.691406 L 320.730469 73.691406 Z M 320.726562 73.695312"/></g><path fill="#F16529" d="M 187.722656 351.933594 L 275.75 327.566406 L 296.460938 95.871094 L 187.722656 95.867188 Z M 187.722656 351.933594"/><path fill="#EBEBEB" d="M 140.609375 162.382812 L 187.722656 162.382812 L 187.722656 129.121094 L 104.214844 129.121094 L 105.011719 138.046875 L 113.199219 229.695312 L 187.722656 229.695312 L 187.722656 196.445312 L 143.65625 196.445312 Z M 140.609375 162.382812"/><path fill="#EBEBEB" d="M 148.117188 246.328125 L 114.6875 246.328125 L 119.351562 298.550781 L 187.566406 317.464844 L 187.722656 317.421875 L 187.722656 282.816406 L 187.578125 282.859375 L 150.488281 272.851562 Z M 148.117188 246.328125"/><path fill="#FFF" d="M 79.464844 0 L 96.390625 0 L 96.390625 16.699219 L 111.871094 16.699219 L 111.871094 0 L 128.792969 0 L 128.792969 50.566406 L 111.871094 50.566406 L 111.871094 33.632812 L 96.390625 33.632812 L 96.390625 50.566406 L 79.464844 50.566406 Z M 79.464844 0"/><path fill="#FFF" d="M 151.050781 16.769531 L 136.152344 16.769531 L 136.152344 0 L 182.882812 0 L 182.882812 16.769531 L 167.972656 16.769531 L 167.972656 50.566406 L 151.050781 50.566406 Z M 151.050781 16.769531"/><path fill="#FFF" d="M 190.296875 0 L 207.941406 0 L 218.796875 17.769531 L 229.640625 0 L 247.296875 0 L 247.296875 50.566406 L 230.445312 50.566406 L 230.445312 25.503906 L 218.796875 43.484375 L 218.503906 43.484375 L 206.855469 25.503906 L 206.855469 50.566406 L 190.296875 50.566406 Z M 190.296875 0"/><path fill="#FFF" d="M 255.71875 0 L 272.644531 0 L 272.644531 33.851562 L 296.449219 33.851562 L 296.449219 50.566406 L 255.71875 50.566406 Z M 255.71875 0"/><path fill="#FFF" d="M 187.609375 229.695312 L 228.621094 229.695312 L 224.75 272.832031 L 187.609375 282.847656 L 187.609375 317.441406 L 255.878906 298.550781 L 256.378906 292.929688 L 264.207031 205.371094 L 265.023438 196.445312 L 187.609375 196.445312 Z M 187.609375 229.695312"/><path fill="#FFF" d="M 187.609375 162.296875 L 187.609375 162.382812 L 268.046875 162.382812 L 268.714844 154.90625 L 270.234375 138.046875 L 271.027344 129.121094 L 187.609375 129.121094 Z M 187.609375 162.296875"/></svg>