<svg xmlns="http://www.w3.org/2000/svg" width="375" viewBox="0 0 375 375" height="375" version="1.0"><defs><clipPath id="a"><path d="M 0 0 L 374.808594 0 L 374.808594 375 L 0 375 Z M 0 0"/></clipPath></defs><g clip-path="url(#a)"><path fill="#FFD600" d="M -0.941406 -0.511719 L 374.808594 -0.511719 L 374.808594 375.238281 L -0.941406 375.238281 Z M -0.941406 -0.511719"/></g><path fill="#000001" d="M 244.738281 280.746094 C 251.960938 292.476562 259.808594 303.71875 276.4375 303.71875 C 290.402344 303.71875 297.730469 296.777344 297.730469 287.175781 C 297.730469 275.683594 290.152344 271.601562 274.789062 264.914062 L 266.363281 261.324219 C 242.054688 251.011719 225.886719 238.089844 225.886719 210.792969 C 225.886719 185.640625 245.144531 166.496094 275.238281 166.496094 C 296.664062 166.496094 312.058594 173.917969 323.164062 193.355469 L 296.925781 210.125 C 291.152344 199.8125 284.910156 195.753906 275.238281 195.753906 C 265.363281 195.753906 259.109375 201.984375 259.109375 210.125 C 259.109375 220.1875 265.375 224.257812 279.828125 230.488281 L 288.253906 234.082031 C 316.902344 246.28125 333.058594 258.746094 333.058594 286.757812 C 333.058594 316.945312 309.222656 333.488281 277.21875 333.488281 C 245.917969 333.488281 228.144531 317.777344 218.246094 298.332031 Z M 123.808594 281.601562 C 129.089844 291.058594 137.117188 298.332031 148.660156 298.332031 C 159.703125 298.332031 166.058594 293.972656 166.058594 277.011719 L 166.058594 166.488281 L 200.847656 166.488281 L 200.847656 282.355469 C 200.847656 317.496094 180.464844 333.488281 150.695312 333.488281 C 123.800781 333.488281 104.386719 315.261719 96.472656 298.332031 Z M 123.808594 281.601562"/></svg>