<svg xmlns="http://www.w3.org/2000/svg" width="375" viewBox="0 0 375 375" height="375" version="1.0"><defs><clipPath id="a"><path d="M 110 86 L 371 86 L 371 365.25 L 110 365.25 Z M 110 86"/></clipPath></defs><path fill="#0277BD" d="M 192.277344 0 C 177.332031 0.046875 166.972656 1.363281 154.453125 3.527344 C 117.476562 9.96875 110.742188 23.492188 110.742188 48.414062 L 110.742188 86.507812 L 197.226562 86.507812 L 197.226562 105.730469 L 65.652344 105.730469 C 40.324219 105.730469 18.152344 117.667969 11.128906 146.28125 C 3.191406 179.125 2.835938 199.695312 11.128906 233.992188 C 17.421875 259.566406 31.289062 278.742188 56.628906 278.742188 L 91.53125 278.742188 L 91.53125 229.683594 C 91.53125 201.175781 117.34375 173.011719 146.917969 173.011719 L 216.453125 173.011719 C 240.699219 173.011719 264.5 155.117188 264.5 130.941406 L 264.5 48.414062 C 264.5 24.972656 247.597656 7.441406 223.96875 3.507812 C 224.554688 3.449219 207.09375 -0.0585938 192.277344 0 Z M 144.382812 38.449219 C 152.273438 38.449219 158.796875 44.953125 158.796875 52.882812 C 158.796875 60.890625 152.273438 67.28125 144.382812 67.28125 C 136.339844 67.28125 129.96875 60.902344 129.96875 52.882812 C 129.96875 44.984375 136.339844 38.449219 144.382812 38.449219 Z M 144.382812 38.449219"/><g clip-path="url(#a)"><path fill="#FFC107" d="M 182.964844 365.25 C 197.90625 365.203125 208.265625 363.886719 220.785156 361.722656 C 257.765625 355.28125 264.5 341.757812 264.5 316.835938 L 264.5 278.742188 L 178.015625 278.742188 L 178.015625 259.519531 L 309.597656 259.519531 C 334.925781 259.519531 357.097656 247.582031 364.121094 218.96875 C 372.058594 186.125 372.414062 165.554688 364.121094 131.257812 C 357.816406 105.683594 343.949219 86.507812 318.609375 86.507812 L 283.710938 86.507812 L 283.710938 135.566406 C 283.710938 164.074219 257.898438 192.238281 228.320312 192.238281 L 158.789062 192.238281 C 134.542969 192.238281 110.742188 210.132812 110.742188 234.308594 L 110.742188 316.835938 C 110.742188 340.277344 127.644531 357.808594 151.273438 361.742188 C 150.6875 361.800781 168.148438 365.308594 182.964844 365.25 Z M 230.867188 326.800781 C 222.976562 326.800781 216.453125 320.296875 216.453125 312.367188 C 216.453125 304.359375 222.976562 297.96875 230.867188 297.96875 C 238.910156 297.96875 245.28125 304.347656 245.28125 312.367188 C 245.28125 320.265625 238.902344 326.800781 230.867188 326.800781 Z M 230.867188 326.800781"/></g></svg>