<svg xmlns="http://www.w3.org/2000/svg" width="375" viewBox="0 0 375 375" height="375" version="1.0"><defs><clipPath id="a"><path d="M 2.683594 108 L 174 108 L 174 226 L 2.683594 226 Z M 2.683594 108"/></clipPath><clipPath id="b"><path d="M 2.683594 102.503906 L 147 102.503906 L 147 231.503906 L 2.683594 231.503906 Z M 2.683594 102.503906"/></clipPath><clipPath id="c"><path d="M 2.683594 102.503906 L 148 102.503906 L 148 231.503906 L 2.683594 231.503906 Z M 2.683594 102.503906"/></clipPath></defs><path fill="#00D8FF" d="M 86.171875 166.890625 C 86.171875 167.703125 86.09375 168.511719 85.933594 169.308594 C 85.777344 170.105469 85.539062 170.878906 85.230469 171.632812 C 84.917969 172.382812 84.535156 173.097656 84.085938 173.773438 C 83.632812 174.449219 83.117188 175.074219 82.542969 175.648438 C 81.96875 176.222656 81.339844 176.738281 80.664062 177.191406 C 79.988281 177.640625 79.273438 178.023438 78.523438 178.335938 C 77.769531 178.644531 76.996094 178.878906 76.199219 179.039062 C 75.398438 179.199219 74.59375 179.277344 73.78125 179.277344 C 72.964844 179.277344 72.160156 179.199219 71.363281 179.039062 C 70.5625 178.878906 69.789062 178.644531 69.039062 178.335938 C 68.285156 178.023438 67.570312 177.640625 66.894531 177.191406 C 66.21875 176.738281 65.59375 176.222656 65.015625 175.648438 C 64.441406 175.074219 63.929688 174.449219 63.476562 173.773438 C 63.023438 173.097656 62.640625 172.382812 62.332031 171.632812 C 62.019531 170.878906 61.785156 170.105469 61.625 169.308594 C 61.46875 168.511719 61.386719 167.703125 61.386719 166.890625 C 61.386719 166.078125 61.46875 165.273438 61.625 164.476562 C 61.785156 163.679688 62.019531 162.902344 62.332031 162.152344 C 62.640625 161.402344 63.023438 160.6875 63.476562 160.011719 C 63.929688 159.335938 64.441406 158.707031 65.015625 158.132812 C 65.59375 157.558594 66.21875 157.046875 66.894531 156.59375 C 67.570312 156.140625 68.285156 155.761719 69.039062 155.449219 C 69.789062 155.136719 70.5625 154.902344 71.363281 154.746094 C 72.160156 154.585938 72.964844 154.507812 73.78125 154.507812 C 74.59375 154.507812 75.398438 154.585938 76.199219 154.746094 C 76.996094 154.902344 77.769531 155.136719 78.523438 155.449219 C 79.273438 155.761719 79.988281 156.140625 80.664062 156.59375 C 81.339844 157.046875 81.96875 157.558594 82.542969 158.132812 C 83.117188 158.707031 83.632812 159.335938 84.085938 160.011719 C 84.535156 160.6875 84.917969 161.402344 85.230469 162.152344 C 85.539062 162.902344 85.777344 163.679688 85.933594 164.476562 C 86.09375 165.273438 86.171875 166.078125 86.171875 166.890625 Z M 86.171875 166.890625"/><g clip-path="url(#a)"><path transform="matrix(.24703 0 0 .24688 7.199 108.225)" fill="none" d="M 269.534756 135.634867 C 336.882437 135.634867 399.454585 145.302323 446.640657 161.536054 C 503.488488 181.108302 538.435278 210.77521 538.435278 237.625739 C 538.435278 265.615477 501.401169 297.133599 440.347072 317.354563 C 394.20466 332.654776 333.466824 340.629241 269.534756 340.629241 C 203.973946 340.629241 141.907816 333.145269 95.227761 317.19634 C 36.181918 297.00702 0.618421 265.093339 0.618421 237.625739 C 0.618421 210.9809 33.983908 181.551328 90.041088 162.010725 C 137.38529 145.508013 201.507114 135.634867 269.518943 135.634867 Z M 269.534756 135.634867" stroke="#00D8FF" stroke-width="24"/></g><g clip-path="url(#b)"><path transform="matrix(.24703 0 0 .24688 7.199 108.225)" fill="none" d="M 180.74461 186.915105 C 214.394731 128.578098 254.022177 79.196542 291.65718 46.444276 C 337.008942 6.983334 380.162692 -8.475103 403.423654 4.942251 C 427.680838 18.913386 436.472881 66.744352 423.490386 129.73313 C 413.702122 177.358405 390.267216 233.939131 358.324902 289.33318 C 325.576123 346.119597 288.067623 396.149869 250.938636 428.60151 C 203.958133 469.676332 158.54312 484.53352 134.760328 470.815542 C 111.673309 457.524767 102.84964 413.902547 113.934571 355.597185 C 123.28007 306.326385 146.762415 245.853361 180.728797 186.930927 Z M 180.74461 186.915105" stroke="#00D8FF" stroke-width="24"/></g><g clip-path="url(#c)"><path transform="matrix(.24703 0 0 .24688 7.199 108.225)" fill="none" d="M 180.823675 289.475581 C 147.078676 231.201864 124.102348 172.200319 114.50384 123.230144 C 102.960331 64.228598 111.135666 19.119077 134.380815 5.654256 C 158.590559 -8.364346 204.432524 7.90103 252.519939 50.605554 C 288.874088 82.88315 326.208644 131.441944 358.230024 186.772704 C 391.07368 243.495831 415.694563 300.97843 425.277258 349.347356 C 437.390036 410.564031 427.585959 457.334899 403.81898 471.084522 C 380.763587 484.438585 338.574431 470.309226 293.570557 431.591934 C 255.571853 398.887136 214.900748 348.334726 180.823675 289.475581 Z M 180.823675 289.475581" stroke="#00D8FF" stroke-width="24"/></g><path fill="#00D8FF" d="M 211.339844 198.535156 L 196.152344 175.601562 C 203.828125 174.925781 210.746094 169.363281 210.746094 159.207031 C 210.746094 148.875 203.40625 142.261719 193.113281 142.261719 L 170.507812 142.261719 L 170.507812 198.492188 L 177.511719 198.492188 L 177.511719 176.148438 L 188.730469 176.148438 L 203.070312 198.492188 Z M 192.273438 170.039062 L 177.511719 170.039062 L 177.511719 148.539062 L 192.273438 148.539062 C 198.941406 148.539062 203.496094 152.921875 203.496094 159.246094 C 203.496094 165.574219 198.941406 170.046875 192.273438 170.046875 Z M 237.410156 199.542969 C 244.078125 199.542969 249.558594 197.351562 253.609375 193.308594 L 250.570312 189.175781 C 247.359375 192.464844 242.640625 194.316406 238 194.316406 C 229.230469 194.316406 223.828125 187.910156 223.320312 180.242188 L 256.304688 180.242188 L 256.304688 178.636719 C 256.304688 166.414062 249.046875 156.800781 236.726562 156.800781 C 225.085938 156.800781 216.652344 166.328125 216.652344 178.132812 C 216.652344 190.863281 225.34375 199.511719 237.40625 199.511719 Z M 250.066406 175.597656 L 223.324219 175.597656 C 223.664062 169.359375 227.960938 162.019531 236.652344 162.019531 C 245.933594 162.019531 249.980469 169.523438 250.066406 175.597656 Z M 298.324219 198.53125 L 298.324219 170.539062 C 298.324219 160.675781 291.15625 156.796875 282.550781 156.796875 C 275.882812 156.796875 270.65625 158.988281 266.269531 163.542969 L 269.222656 167.925781 C 272.847656 164.046875 276.816406 162.277344 281.707031 162.277344 C 287.613281 162.277344 292.003906 165.394531 292.003906 170.875 L 292.003906 178.210938 C 288.710938 174.414062 284.074219 172.644531 278.503906 172.644531 C 271.585938 172.644531 264.242188 176.945312 264.242188 186.050781 C 264.242188 194.902344 271.578125 199.539062 278.503906 199.539062 C 283.988281 199.539062 288.628906 197.601562 292.003906 193.890625 L 292.003906 198.523438 Z M 280.78125 194.988281 C 274.875 194.988281 270.742188 191.285156 270.742188 186.136719 C 270.742188 180.910156 274.875 177.199219 280.78125 177.199219 C 285.253906 177.199219 289.554688 178.886719 292.003906 182.261719 L 292.003906 189.933594 C 289.554688 193.304688 285.253906 194.992188 280.78125 194.992188 Z M 328.917969 199.542969 C 336.339844 199.542969 340.726562 196.507812 343.851562 192.464844 L 339.632812 188.585938 C 336.933594 192.210938 333.472656 193.894531 329.292969 193.894531 C 320.601562 193.894531 315.207031 187.148438 315.207031 178.132812 C 315.207031 169.113281 320.605469 162.453125 329.292969 162.453125 C 333.511719 162.453125 336.96875 164.054688 339.632812 167.761719 L 343.851562 163.882812 C 340.730469 159.835938 336.339844 156.804688 328.917969 156.804688 C 316.769531 156.804688 308.585938 166.078125 308.585938 178.132812 C 308.585938 190.277344 316.769531 199.515625 328.917969 199.515625 Z M 363.003906 199.542969 C 366.714844 199.542969 368.996094 198.445312 370.601562 196.933594 L 368.746094 192.210938 C 367.902344 193.136719 366.25 193.894531 364.441406 193.894531 C 361.660156 193.894531 360.304688 191.703125 360.304688 188.667969 L 360.304688 163.375 L 368.578125 163.375 L 368.578125 157.8125 L 360.304688 157.8125 L 360.304688 146.683594 L 353.976562 146.683594 L 353.976562 157.8125 L 347.226562 157.8125 L 347.226562 163.378906 L 353.976562 163.378906 L 353.976562 190.023438 C 353.976562 196.09375 357.015625 199.550781 363.003906 199.550781 Z M 363.003906 199.542969" fill-rule="evenodd"/></svg>