<svg xmlns="http://www.w3.org/2000/svg" width="375" viewBox="0 0 375 375" height="375" version="1.0"><defs><clipPath id="a"><path d="M 2.347656 120.71875 L 98 120.71875 L 98 254.839844 L 2.347656 254.839844 Z M 2.347656 120.71875"/></clipPath></defs><path fill="#FFF" d="M 91.867188 122.738281 L 91.867188 128.796875 C 91.867188 128.796875 81.066406 124.757812 74.074219 132.089844 C 68.992188 137.402344 68.570312 143.355469 70.898438 151.324219 C 93.773438 151.324219 97.375 164.183594 97.375 164.183594 L 95.042969 149.414062 L 102.246094 140.59375 C 102.246094 130.179688 93.667969 123.269531 91.867188 122.738281 Z M 91.867188 122.738281"/><path d="M 96.632812 137.617188 C 96.632812 137.984375 96.5625 138.335938 96.425781 138.671875 C 96.28125 139.011719 96.085938 139.3125 95.828125 139.570312 C 95.570312 139.832031 95.269531 140.027344 94.933594 140.171875 C 94.597656 140.308594 94.246094 140.378906 93.882812 140.378906 C 93.515625 140.378906 93.164062 140.308594 92.828125 140.171875 C 92.488281 140.027344 92.191406 139.832031 91.933594 139.570312 C 91.675781 139.3125 91.476562 139.011719 91.335938 138.671875 C 91.195312 138.335938 91.125 137.984375 91.125 137.617188 C 91.125 137.25 91.195312 136.898438 91.335938 136.558594 C 91.476562 136.21875 91.675781 135.921875 91.933594 135.664062 C 92.191406 135.40625 92.488281 135.203125 92.828125 135.066406 C 93.164062 134.921875 93.515625 134.851562 93.882812 134.851562 C 94.246094 134.851562 94.597656 134.921875 94.933594 135.066406 C 95.269531 135.203125 95.570312 135.40625 95.828125 135.664062 C 96.085938 135.921875 96.28125 136.21875 96.425781 136.558594 C 96.5625 136.898438 96.632812 137.25 96.632812 137.617188 Z M 96.632812 137.617188"/><g clip-path="url(#a)"><path d="M 97.375 164.183594 C 97.375 164.183594 93.882812 146.542969 71.007812 151.324219 C 68.675781 143.355469 69.101562 137.511719 74.183594 132.089844 C 81.066406 124.757812 91.867188 128.796875 91.867188 128.796875 L 91.867188 122.738281 C 88.054688 121.035156 84.453125 120.71875 80.433594 120.71875 C 65.710938 120.71875 57.558594 131.773438 54.0625 139.210938 L 12.65625 215.621094 L 24.304688 213.390625 L 2.914062 254.839844 L 17.84375 252.183594 L 29.285156 219.554688 C 61.6875 219.554688 103.199219 207.863281 97.375 164.183594 Z M 97.375 164.183594"/></g><path d="M 111.351562 149.414062 L 102.246094 140.59375 L 95.042969 149.414062 Z M 111.351562 149.414062"/><path fill="#FFF" d="M 34.683594 210.097656 C 34.683594 210.097656 35.742188 209.882812 37.648438 209.457031 C 39.554688 209.035156 42.199219 208.398438 45.378906 207.546875 C 46.96875 207.121094 48.660156 206.589844 50.460938 205.953125 C 52.261719 205.3125 54.167969 204.675781 55.96875 203.828125 C 57.875 203.082031 59.78125 202.125 61.6875 201.0625 C 63.59375 200 65.390625 198.832031 67.085938 197.453125 C 67.511719 197.132812 67.933594 196.8125 68.359375 196.386719 L 69.628906 195.324219 C 70.371094 194.582031 71.214844 193.835938 71.960938 192.988281 C 72.703125 192.242188 73.335938 191.394531 73.972656 190.542969 C 74.289062 190.121094 74.609375 189.691406 74.925781 189.265625 L 75.769531 187.992188 C 75.980469 187.566406 76.300781 187.140625 76.511719 186.714844 C 76.722656 186.289062 76.933594 185.867188 77.253906 185.441406 C 77.359375 185.230469 77.464844 185.015625 77.570312 184.804688 C 77.675781 184.59375 77.785156 184.375 77.886719 184.164062 C 78.101562 183.738281 78.3125 183.316406 78.417969 182.890625 C 78.738281 182.042969 79.054688 181.1875 79.371094 180.339844 C 79.582031 179.492188 79.902344 178.636719 80.113281 177.898438 C 80.324219 177.152344 80.433594 176.300781 80.644531 175.660156 C 80.75 174.921875 80.851562 174.28125 80.960938 173.539062 C 81.066406 172.898438 81.171875 172.261719 81.171875 171.734375 C 81.277344 171.199219 81.277344 170.667969 81.386719 170.140625 C 81.488281 168.226562 81.488281 167.160156 81.488281 167.160156 L 83.183594 167.269531 C 83.183594 167.269531 83.078125 168.4375 82.972656 170.351562 C 82.867188 170.878906 82.867188 171.414062 82.757812 171.945312 C 82.65625 172.582031 82.65625 173.21875 82.441406 173.855469 C 82.339844 174.496094 82.125 175.238281 82.019531 175.980469 C 81.804688 176.726562 81.597656 177.472656 81.386719 178.320312 C 81.171875 179.171875 80.851562 179.914062 80.535156 180.871094 C 80.21875 181.722656 79.902344 182.570312 79.480469 183.527344 C 79.265625 183.953125 79.054688 184.375 78.84375 184.804688 C 78.738281 185.015625 78.628906 185.230469 78.527344 185.441406 C 78.417969 185.652344 78.3125 185.867188 78.207031 186.078125 C 77.996094 186.503906 77.675781 186.925781 77.464844 187.460938 C 77.148438 187.882812 76.933594 188.308594 76.617188 188.738281 C 76.511719 188.949219 76.300781 189.164062 76.195312 189.375 L 75.769531 190.011719 C 75.453125 190.4375 75.136719 190.859375 74.816406 191.285156 C 74.074219 192.136719 73.441406 192.988281 72.59375 193.730469 C 71.851562 194.582031 71.007812 195.21875 70.160156 196.070312 L 68.886719 197.132812 C 68.464844 197.453125 68.039062 197.769531 67.511719 198.089844 C 65.710938 199.363281 63.804688 200.53125 61.898438 201.597656 C 59.992188 202.550781 57.980469 203.507812 56.074219 204.253906 C 54.167969 204.996094 52.261719 205.632812 50.460938 206.167969 C 48.660156 206.695312 46.96875 207.226562 45.273438 207.546875 C 42.097656 208.289062 39.339844 208.929688 37.433594 209.246094 C 35.742188 209.882812 34.683594 210.097656 34.683594 210.097656 Z M 34.683594 210.097656"/><path fill="#FFF" d="M 137.402344 209.882812 L 128.082031 209.882812 L 114.742188 171.199219 L 123.109375 171.199219 L 132.636719 200.425781 L 142.171875 171.199219 L 150.539062 171.199219 L 160.066406 200.425781 L 169.597656 171.199219 L 177.960938 171.199219 L 164.9375 209.882812 L 155.621094 209.882812 L 146.511719 183.421875 Z M 137.402344 209.882812"/><path fill="#FFF" d="M 214.816406 209.882812 L 207.402344 209.882812 L 207.402344 204.675781 C 204.226562 208.5 199.992188 210.414062 194.589844 210.414062 C 190.566406 210.414062 187.28125 209.246094 184.636719 207.015625 C 181.988281 204.785156 180.71875 201.703125 180.71875 197.875 C 180.71875 194.046875 182.089844 191.179688 184.953125 189.375 C 187.707031 187.460938 191.519531 186.503906 196.28125 186.503906 L 206.769531 186.503906 L 206.769531 185.015625 C 206.769531 179.914062 203.910156 177.257812 198.1875 177.257812 C 194.589844 177.257812 190.882812 178.535156 187.070312 181.1875 L 183.46875 176.089844 C 188.132812 172.371094 193.421875 170.457031 199.460938 170.457031 C 204.011719 170.457031 207.722656 171.625 210.582031 173.855469 C 213.441406 176.195312 214.921875 179.808594 214.921875 184.695312 L 214.921875 209.882812 Z M 206.660156 195.429688 L 206.660156 192.136719 L 197.554688 192.136719 C 191.730469 192.136719 188.765625 193.945312 188.765625 197.664062 C 188.765625 199.574219 189.503906 200.957031 190.988281 202.023438 C 192.472656 202.980469 194.484375 203.507812 197.023438 203.507812 C 199.566406 203.507812 201.898438 202.761719 203.804688 201.277344 C 205.707031 199.894531 206.660156 197.980469 206.660156 195.429688 Z M 206.660156 195.429688"/><path fill="#FFF" d="M 258.871094 171.199219 L 258.871094 204.890625 C 258.871094 211.691406 257.070312 216.898438 253.363281 220.300781 C 249.65625 223.699219 244.890625 225.402344 239.171875 225.402344 C 233.347656 225.402344 228.160156 223.59375 223.5 219.980469 L 227.3125 213.816406 C 231.125 216.6875 234.832031 218.070312 238.75 218.070312 C 242.558594 218.070312 245.632812 217.113281 247.855469 215.09375 C 250.082031 213.074219 251.242188 209.882812 251.242188 205.527344 L 251.242188 200.53125 C 250.082031 202.761719 248.28125 204.675781 246.058594 205.953125 C 243.835938 207.335938 241.289062 207.972656 238.539062 207.972656 C 233.457031 207.972656 229.21875 206.167969 225.933594 202.550781 C 222.652344 198.9375 220.960938 194.476562 220.960938 189.164062 C 220.960938 183.847656 222.652344 179.382812 225.933594 175.769531 C 229.21875 172.15625 233.457031 170.351562 238.539062 170.351562 C 243.621094 170.351562 247.75 172.472656 250.925781 176.726562 L 250.925781 170.988281 L 258.871094 170.988281 Z M 228.792969 189.054688 C 228.792969 192.242188 229.746094 195.003906 231.761719 197.234375 C 233.664062 199.574219 236.3125 200.640625 239.699219 200.640625 C 242.984375 200.640625 245.742188 199.574219 247.75 197.34375 C 249.761719 195.113281 250.824219 192.351562 250.824219 189.054688 C 250.824219 185.757812 249.761719 182.890625 247.75 180.660156 C 245.632812 178.320312 242.984375 177.257812 239.699219 177.257812 C 236.421875 177.257812 233.773438 178.425781 231.867188 180.871094 C 229.746094 183.101562 228.792969 185.867188 228.792969 189.054688 Z M 228.792969 189.054688"/><path fill="#FFF" d="M 279.203125 177.683594 L 279.203125 197.34375 C 279.203125 199.148438 279.734375 200.640625 280.6875 201.703125 C 281.636719 202.761719 283.015625 203.296875 284.707031 203.296875 C 286.402344 203.296875 288.097656 202.445312 289.6875 200.742188 L 292.96875 206.484375 C 290.113281 209.035156 286.933594 210.3125 283.542969 210.3125 C 280.050781 210.3125 277.191406 209.140625 274.753906 206.695312 C 272.320312 204.253906 271.050781 201.0625 271.050781 197.023438 L 271.050781 177.683594 L 266.175781 177.683594 L 266.175781 171.09375 L 271.050781 171.09375 L 271.050781 159.085938 L 279.203125 159.085938 L 279.203125 171.199219 L 289.371094 171.199219 L 289.371094 177.789062 L 279.203125 177.789062 Z M 279.203125 177.683594"/><path fill="#FFF" d="M 330.671875 209.882812 L 323.257812 209.882812 L 323.257812 204.675781 C 320.078125 208.5 315.84375 210.414062 310.441406 210.414062 C 306.417969 210.414062 303.136719 209.246094 300.488281 207.015625 C 297.84375 204.785156 296.570312 201.703125 296.570312 197.875 C 296.570312 194.046875 297.945312 191.179688 300.804688 189.375 C 303.558594 187.460938 307.371094 186.503906 312.136719 186.503906 L 322.621094 186.503906 L 322.621094 185.015625 C 322.621094 179.914062 319.761719 177.257812 314.042969 177.257812 C 310.441406 177.257812 306.738281 178.535156 302.925781 181.1875 L 299.324219 176.089844 C 303.980469 172.371094 309.277344 170.457031 315.3125 170.457031 C 319.867188 170.457031 323.574219 171.625 326.433594 173.855469 C 329.292969 176.195312 330.773438 179.808594 330.773438 184.695312 L 330.773438 209.882812 Z M 322.515625 195.429688 L 322.515625 192.136719 L 313.40625 192.136719 C 307.582031 192.136719 304.621094 193.945312 304.621094 197.664062 C 304.621094 199.574219 305.359375 200.957031 306.84375 202.023438 C 308.324219 202.980469 310.339844 203.507812 312.878906 203.507812 C 315.421875 203.507812 317.75 202.761719 319.65625 201.277344 C 321.5625 199.894531 322.515625 197.980469 322.515625 195.429688 Z M 322.515625 195.429688"/><path fill="#FFF" d="M 341.046875 163.441406 C 339.992188 162.378906 339.566406 161.207031 339.566406 159.828125 C 339.566406 158.445312 340.09375 157.171875 341.046875 156.214844 C 342.105469 155.152344 343.269531 154.730469 344.648438 154.730469 C 346.027344 154.730469 347.296875 155.257812 348.25 156.214844 C 349.308594 157.277344 349.730469 158.445312 349.730469 159.828125 C 349.730469 161.207031 349.203125 162.484375 348.25 163.441406 C 347.296875 164.398438 346.027344 164.929688 344.648438 164.929688 C 343.269531 165.039062 342.105469 164.503906 341.046875 163.441406 Z M 348.675781 209.882812 L 340.519531 209.882812 L 340.519531 171.199219 L 348.675781 171.199219 Z M 348.675781 209.882812"/><path fill="#FFF" d="M 357.460938 155.898438 L 365.617188 155.898438 L 365.617188 209.882812 L 357.460938 209.882812 Z M 357.460938 155.898438"/></svg>